<svg xmlns="http://www.w3.org/2000/svg" width="193.451" height="47.305" viewBox="0 0 193.451 47.305">
  <g id="greenhat-logo" transform="translate(-12.71 -4.1)">
    <g id="Group_217" data-name="Group 217" transform="translate(78.223 14.413)">
      <path id="Path_1702" data-name="Path 1702" d="M182.155,36.753h10.375c.893,0,1.434-.547,1.628-1.641v-.353a8.784,8.784,0,0,0-.97-4.073q-2.795-4.789-7.833-4.786a9.4,9.4,0,0,0-4.156,1.094q-4.53,2.836-4.53,7.639a8.941,8.941,0,0,0,1.143,4.356,8.628,8.628,0,0,0,7.542,4.4h.45a8.832,8.832,0,0,0,4.079-1.267l-1.33-3.02a7.135,7.135,0,0,1-3.089.9,6.709,6.709,0,0,1-2.389-.485c-1.849-.99-4.488-3.657-2.258-7.577a5.064,5.064,0,0,1,4.35-2.611h.665a5.25,5.25,0,0,1,3.546,1.711,5.927,5.927,0,0,1,1.337,2.4h-8.568V36.76Z" transform="translate(-128.624 -21.114)" fill="#45bea8"/>
      <path id="Path_1703" data-name="Path 1703" d="M142.771,25.747c-3.879,0-8.159,2.092-8.561,6.51,0,0,.021.332.021.8l.028,10.251h3.311v-8.72a5.9,5.9,0,0,1,.326-2.064c1.011-2.258,2.6-3.387,4.772-3.387h.353a8.909,8.909,0,0,1,2.4.526l1.06-3.075a9.476,9.476,0,0,0-3.7-.852Z" transform="translate(-115.572 -21.065)" fill="#45bea8"/>
      <path id="Path_1704" data-name="Path 1704" d="M207.148,35.509a8.051,8.051,0,0,1,.423-3.1A5.076,5.076,0,0,1,212.2,29.3h.18a6.172,6.172,0,0,1,1.544.229q3.563,1.309,3.56,5.492v8.353H220.8V34.234a8.348,8.348,0,0,0-2.029-5.305,8.505,8.505,0,0,0-6.4-3,7.48,7.48,0,0,0-5.222,1.759,9.336,9.336,0,0,0-3.318,6.691v9h3.318V35.509Z" transform="translate(-136.973 -21.123)" fill="#45bea8"/>
      <path id="Path_1705" data-name="Path 1705" d="M234.008,32.683a9.338,9.338,0,0,1,.208-2.383q1.257-3.273,4.3-3.269a5.357,5.357,0,0,1,1.482.208,4.454,4.454,0,0,1,3.082,4.287v9.717h3.338V31.166a7.277,7.277,0,0,0-.983-3.463,7.881,7.881,0,0,0-6.912-4.079,6.664,6.664,0,0,0-4.516,1.454V18.99H230.67V41.236h3.338V32.676Z" transform="translate(-145.224 -18.99)" fill="#45bea8"/>
      <path id="Path_1706" data-name="Path 1706" d="M288.812,37.99h-.644l-1.274-.111c-.727-.249-1.094-1.018-1.094-2.306V27.366h3.013l.291.021V24.152h-.062l-3.241.007V19.02H282.53V35.926a6.527,6.527,0,0,0,.27,1.953q1.517,3.387,4.641,3.387h1.24c.062,0,.353-.007.416-.014V38h-.284Z" transform="translate(-161.165 -18.999)" fill="#45bea8"/>
      <path id="Path_1707" data-name="Path 1707" d="M155.135,36.753h10.375c.893,0,1.434-.547,1.628-1.641v-.353a8.7,8.7,0,0,0-.97-4.073q-2.795-4.789-7.833-4.786a9.4,9.4,0,0,0-4.156,1.094q-4.53,2.836-4.53,7.639a8.941,8.941,0,0,0,1.143,4.356,8.628,8.628,0,0,0,7.542,4.4h.45a8.862,8.862,0,0,0,4.079-1.267l-1.33-3.02a7.161,7.161,0,0,1-3.089.9,6.674,6.674,0,0,1-2.383-.485c-1.849-.99-4.488-3.657-2.258-7.577a5.064,5.064,0,0,1,4.35-2.611h.665a5.251,5.251,0,0,1,3.546,1.711,5.927,5.927,0,0,1,1.337,2.4h-8.567V36.76Z" transform="translate(-120.318 -21.114)" fill="#45bea8"/>
      <path id="Path_1708" data-name="Path 1708" d="M122.71,29.2a8.692,8.692,0,0,0-6.725-3.221,8.784,8.784,0,0,0-4.945,1.593,8.618,8.618,0,0,0-3.74,7.092,9.214,9.214,0,0,0,1.856,5.4,8.419,8.419,0,0,0,6.531,3.29h.485a7.722,7.722,0,0,0,3.324-.672h.014v-3.9a4.8,4.8,0,0,1-3.338,1.267h-.353a5.969,5.969,0,0,1-1.676-.27q-3.532-1.641-3.532-5v-.291a5.45,5.45,0,0,1,.326-1.738q1.673-3.47,4.945-3.47h.222a8.237,8.237,0,0,1,1.711.263q3.563,1.662,3.56,4.994v8.547l-.1.644a5.684,5.684,0,0,1-5.285,3.158,6.052,6.052,0,0,1-4.917-2.466.674.674,0,0,0-.076-.1l-2.888,1.448a.756.756,0,0,0,.042.076,9.355,9.355,0,0,0,7.833,4.225,9.525,9.525,0,0,0,5.305-1.662c2.216-1.7,3.318-3.3,3.318-4.821V36.348l.035-2.009a8.787,8.787,0,0,0-1.932-5.132Z" transform="translate(-107.3 -21.139)" fill="#45bea8"/>
      <path id="Path_1709" data-name="Path 1709" d="M272.611,34.844a9.932,9.932,0,0,0-.887-4.079q-2.888-4.841-7.833-4.834a9.4,9.4,0,0,0-3.969.949q-4.769,2.857-4.772,7.723a9.6,9.6,0,0,0,1.08,4.336c1.974,2.964,4.453,4.447,7.418,4.447h.464a8.368,8.368,0,0,0,3.387-.658V38.681a4.814,4.814,0,0,1-3.387,1.378h-.464a5.242,5.242,0,0,1-1.856-.388,5.3,5.3,0,0,1-3.318-4.966v-.18a6.372,6.372,0,0,1,.319-1.8q1.693-3.48,5.028-3.484h.062a5.427,5.427,0,0,1,2.258.485,5.293,5.293,0,0,1,3.144,4.869v.242l.014,8.526h3.3V34.837Z" transform="translate(-152.749 -21.123)" fill="#45bea8"/>
    </g>
    <path id="Path_1710" data-name="Path 1710" d="M92.149,7.917a25.98,25.98,0,0,1-.519,7.716A37.318,37.318,0,0,1,96.236,20.7a29.1,29.1,0,0,0,.526-8.228A34.923,34.923,0,0,0,92.149,7.91" transform="translate(-24.26 -1.171)" fill="#f58220"/>
    <path id="Path_1711" data-name="Path 1711" d="M87.089,22.17A45.925,45.925,0,0,1,78.66,37.6c3.228,3.311,5.79,6.095,7.023,9.253,3.248-3.934,6.337-8.034,8.4-14.8-.907-2.41-1.842-4.9-7-9.883" transform="translate(-20.273 -5.555)" fill="#0072bc"/>
    <path id="Path_1712" data-name="Path 1712" d="M71.862,47.4a96.679,96.679,0,0,1-9.752,9.371,80.566,80.566,0,0,1,6.268,5.873,65.237,65.237,0,0,0,9.516-8.318,40.349,40.349,0,0,0-6.026-6.919" transform="translate(-15.185 -13.31)" fill="#ed0677"/>
    <path id="Path_1713" data-name="Path 1713" d="M83.535,4.1a22.354,22.354,0,0,1-.665,5.271c2.348,1.863,2.84,2.251,4.543,3.726a25.406,25.406,0,0,0,.623-5.6C85.7,5.665,85.564,5.561,83.528,4.1" transform="translate(-21.567)" fill="#52c9ed"/>
    <path id="Path_1714" data-name="Path 1714" d="M66.539,5.647C65.244,8.5,63.63,12.054,57.75,19c4.239,4.059,8.671,7.9,12.9,11.968,2.66-3.5,6.3-8.3,8.484-15.286-3.705-3.221-5.167-4.37-12.6-10.043" transform="translate(-13.845 -0.473)" fill="#662d91"/>
    <path id="Path_1715" data-name="Path 1715" d="M33.509,13.49c-6.884,6.753-14.5,12.751-20.8,20.12,2.743,3.969,7.854,11.345,21.159,20.681,9.8-7.764,15.2-12.037,21.208-18.839C42.035,23.242,38.1,19.55,33.509,13.5" transform="translate(0 -2.886)" fill="#45bea8"/>
  </g>
</svg>
